<svg width="119" height="188" viewBox="0 0 119 188" fill="none" xmlns="http://www.w3.org/2000/svg">
<path d="M42.2163 172.032C35.1234 194.958 1.49432 190.791 0.211101 166.828C0.071534 164.221 0.407745 161.611 1.20328 159.126L49.4229 8.45054C51.034 3.4161 55.714 0 61 0C66.286 0 70.966 3.41611 72.5771 8.45055L118.429 151.727C120.195 157.245 116.078 162.886 110.284 162.886C106.534 162.886 103.222 160.443 102.113 156.861L97.6893 142.562C89.6988 116.735 52.0237 120.512 49.3178 147.41C49.1523 149.055 48.8228 150.679 48.3342 152.258L42.2163 172.032ZM24.6773 108.007C24.6773 103.175 28.5942 99.2584 33.426 99.2584H88.5741C93.4058 99.2584 97.3228 103.175 97.3228 108.007C97.3228 112.839 93.4058 116.756 88.574 116.756H33.426C28.5942 116.756 24.6773 112.839 24.6773 108.007Z" fill="#830307"/>
<path d="M20.0135 156.451C18.8201 160.308 15.6392 162.886 12.0718 162.886C6.2124 162.886 2.14133 156.194 4.16099 149.883L49.069 9.5565C50.9061 3.81574 55.67 0 61 0C66.33 0 71.0939 3.81574 72.931 9.5565L117.839 149.883C119.859 156.194 115.788 162.886 109.928 162.886C106.361 162.886 103.18 160.308 101.987 156.451L61.7401 26.3686C61.6288 26.0091 61.3324 25.769 61 25.769C60.6676 25.769 60.3711 26.0091 60.2599 26.3686L20.0135 156.451ZM24.6773 108.007C24.6773 103.175 28.0911 99.2584 32.3023 99.2584H89.6978C93.909 99.2584 97.3228 103.175 97.3228 108.007C97.3228 112.839 93.909 116.756 89.6978 116.756H32.3023C28.0911 116.756 24.6773 112.839 24.6773 108.007Z" fill="#830307"/>
</svg>
