<svg width="267" height="118" viewBox="0 0 267 118" fill="none" xmlns="http://www.w3.org/2000/svg">
<path d="M2.06685 47.0771C0.925361 47.0771 0 46.1518 0 45.0103V21.6423C0 15.9901 4.58203 11.408 10.2342 11.408H18.5527C19.6108 11.408 20.4685 12.2658 20.4685 13.3239V13.3239C20.4685 14.3819 19.6107 15.2397 18.5527 15.2397H10.1598C6.83169 15.2397 4.1337 17.9377 4.1337 21.2658V21.2658C4.1337 24.5939 6.83169 27.2919 10.1598 27.2919H17.0192C18.0773 27.2919 18.935 28.1497 18.935 29.2078V29.2078C18.935 30.2658 18.0773 31.1236 17.0192 31.1236H11.5344C7.44709 31.1236 4.1337 34.437 4.1337 38.5242V45.0103C4.1337 46.1518 3.20834 47.0771 2.06685 47.0771V47.0771Z" fill="black"/>
<path d="M47.6304 13.7708C47.6304 12.6293 48.5557 11.7039 49.6972 11.7039V11.7039C50.8387 11.7039 51.7641 12.6293 51.7641 13.7708V35.3207C51.7641 37.7591 51.214 39.9361 50.1139 41.852C49.025 43.7562 47.4859 45.2598 45.4969 46.3628C43.5078 47.4543 41.1743 48 38.4962 48C35.8182 48 33.4847 47.4543 31.4956 46.3628C29.5066 45.2598 27.962 43.7562 26.8619 41.852C25.7729 39.9361 25.2284 37.7591 25.2284 35.3207V13.7708C25.2284 12.6293 26.1538 11.7039 27.2952 11.7039V11.7039C28.4367 11.7039 29.3621 12.6293 29.3621 13.7708V34.9724C29.3621 36.7141 29.7288 38.2641 30.4622 39.6226C31.1956 40.9695 32.2401 42.0319 33.5958 42.8099C34.9626 43.5762 36.5961 43.9594 38.4962 43.9594C40.3964 43.9594 42.0299 43.5762 43.3967 42.8099C44.7635 42.0319 45.808 40.9695 46.5303 39.6226C47.2637 38.2641 47.6304 36.7141 47.6304 34.9724V13.7708Z" fill="black"/>
<path d="M85.0546 11.7039C86.1776 11.7039 87.0881 12.6144 87.0881 13.7374V44.7691C87.0881 46.2072 85.9223 47.373 84.4842 47.373V47.373C83.612 47.373 82.7977 46.9363 82.3151 46.2098L64.5504 19.4641C64.5102 19.4036 64.4424 19.3672 64.3697 19.3672V19.3672C64.2498 19.3672 64.1527 19.4644 64.1527 19.5842V45.3062C64.1527 46.4476 63.2273 47.373 62.0858 47.373V47.373C60.9444 47.373 60.019 46.4476 60.019 45.3062V14.3084C60.019 12.87 61.1851 11.7039 62.6235 11.7039V11.7039C63.4954 11.7039 64.3095 12.1402 64.7923 12.8663L82.6233 39.6825C82.6635 39.743 82.7313 39.7794 82.804 39.7794V39.7794C82.9239 39.7794 83.021 39.6822 83.021 39.5623V13.7374C83.021 12.6144 83.9315 11.7039 85.0546 11.7039V11.7039Z" fill="black"/>
<path d="M105.894 47.373V47.373C100.076 47.373 95.3597 42.6566 95.3597 36.8387V22.7049C95.3597 16.6292 100.285 11.7039 106.361 11.7039V11.7039C109.672 11.7039 112.506 12.418 114.861 13.8462C117.217 15.2627 119.023 17.3004 120.279 19.9594C121.534 22.6067 122.162 25.7765 122.162 29.4688C122.162 33.1843 121.529 36.3832 120.262 39.0653C118.995 41.7358 117.15 43.791 114.728 45.2308C112.306 46.6589 109.361 47.373 105.894 47.373ZM99.4934 37.4075C99.4934 40.7951 102.24 43.5414 105.627 43.5414V43.5414C108.45 43.5414 110.789 42.9724 112.645 41.8345C114.5 40.6967 115.884 39.0769 116.795 36.9753C117.706 34.8737 118.162 32.3715 118.162 29.4688C118.162 26.5893 117.712 24.1103 116.812 22.0319C115.911 19.942 114.567 18.3396 112.778 17.225C110.989 16.0987 108.761 15.5356 106.094 15.5356V15.5356C102.449 15.5356 99.4934 18.4908 99.4934 22.1362V37.4075Z" fill="black"/>
<path d="M184.496 20.4834C184.895 21.6952 183.912 22.8505 182.637 22.8505V22.8505C181.652 22.8505 180.831 22.1426 180.484 21.221C180.262 20.6293 179.987 20.081 179.659 19.5762C179.059 18.6357 178.325 17.8462 177.459 17.2075C176.603 16.5573 175.653 16.0697 174.608 15.7446C173.564 15.4194 172.475 15.2569 171.341 15.2569C169.275 15.2569 167.402 15.8026 165.724 16.894C164.057 17.9855 162.73 19.5936 161.741 21.7184C160.763 23.8433 160.274 26.4499 160.274 29.5385C160.274 32.627 160.763 35.2337 161.741 37.3585C162.73 39.4833 164.057 41.0914 165.724 42.1829C167.402 43.2743 169.275 43.82 171.341 43.82C172.475 43.82 173.564 43.6575 174.608 43.3324C175.653 43.0072 176.603 42.5254 177.459 41.8868C178.325 41.2366 179.059 40.4412 179.659 39.5007C179.986 38.9912 180.261 38.4417 180.483 37.8524C180.829 36.9322 181.651 36.2264 182.634 36.2264V36.2264C183.911 36.2264 184.892 37.3832 184.493 38.5956C184.196 39.4941 183.824 40.3357 183.376 41.1205C182.554 42.5602 181.531 43.7852 180.309 44.7953C179.087 45.7939 177.714 46.5544 176.192 47.0769C174.681 47.5994 173.064 47.8607 171.341 47.8607C168.43 47.8607 165.841 47.1176 163.574 45.6313C161.307 44.1451 159.524 42.0319 158.224 39.2917C156.924 36.5515 156.273 33.3004 156.273 29.5385C156.273 25.7765 156.924 22.5254 158.224 19.7852C159.524 17.045 161.307 14.9318 163.574 13.4456C165.841 11.9594 168.43 11.2163 171.341 11.2163C173.064 11.2163 174.681 11.4775 176.192 12C177.714 12.5225 179.087 13.2888 180.309 14.299C181.531 15.2975 182.554 16.5167 183.376 17.9565C183.826 18.7379 184.199 19.5803 184.496 20.4834Z" fill="black"/>
<path d="M193.823 11.7039C194.964 11.7039 195.889 12.6293 195.889 13.7708V45.3061C195.889 46.4476 194.964 47.373 193.823 47.373V47.373C192.681 47.373 191.756 46.4476 191.756 45.3061V13.7708C191.756 12.6293 192.681 11.7039 193.823 11.7039V11.7039Z" fill="black"/>
<path d="M232.98 29.5385C232.98 33.3004 232.33 36.5515 231.03 39.2917C229.73 42.0319 227.947 44.1451 225.68 45.6313C223.413 47.1176 220.824 47.8607 217.912 47.8607C215.001 47.8607 212.412 47.1176 210.145 45.6313C207.878 44.1451 206.095 42.0319 204.794 39.2917C203.494 36.5515 202.844 33.3004 202.844 29.5385C202.844 25.7765 203.494 22.5254 204.794 19.7852C206.095 17.045 207.878 14.9318 210.145 13.4456C212.412 11.9594 215.001 11.2163 217.912 11.2163C220.824 11.2163 223.413 11.9594 225.68 13.4456C227.947 14.9318 229.73 17.045 231.03 19.7852C232.33 22.5254 232.98 25.7765 232.98 29.5385ZM228.98 29.5385C228.98 26.4499 228.485 23.8433 227.496 21.7184C226.519 19.5936 225.191 17.9855 223.513 16.894C221.846 15.8026 219.979 15.2569 217.912 15.2569C215.845 15.2569 213.973 15.8026 212.295 16.894C210.628 17.9855 209.3 19.5936 208.311 21.7184C207.334 23.8433 206.845 26.4499 206.845 29.5385C206.845 32.627 207.334 35.2337 208.311 37.3585C209.3 39.4833 210.628 41.0914 212.295 42.1829C213.973 43.2743 215.845 43.82 217.912 43.82C219.979 43.82 221.846 43.2743 223.513 42.1829C225.191 41.0914 226.519 39.4833 227.496 37.3585C228.485 35.2337 228.98 32.627 228.98 29.5385ZM218.707 8.08129C217.516 8.08129 216.743 6.82699 217.278 5.76367L219.659 1.03405C219.978 0.400041 220.627 0 221.337 0V0C222.823 0 223.721 1.64497 222.916 2.89512L220.051 7.34765C219.757 7.80492 219.25 8.08129 218.707 8.08129V8.08129Z" fill="black"/>
<path d="M264.966 11.7039C266.09 11.7039 267 12.6144 267 13.7374V44.7691C267 46.2072 265.834 47.373 264.396 47.373V47.373C263.524 47.373 262.71 46.9363 262.227 46.2098L244.462 19.4641C244.422 19.4036 244.354 19.3672 244.282 19.3672V19.3672C244.162 19.3672 244.065 19.4644 244.065 19.5842V45.3061C244.065 46.4476 243.139 47.373 241.998 47.373V47.373C240.856 47.373 239.931 46.4476 239.931 45.3061V14.3084C239.931 12.87 241.097 11.7039 242.535 11.7039V11.7039C243.407 11.7039 244.221 12.1402 244.704 12.8663L262.535 39.6825C262.575 39.743 262.643 39.7794 262.716 39.7794V39.7794C262.836 39.7794 262.933 39.6822 262.933 39.5623V13.7374C262.933 12.6144 263.843 11.7039 264.966 11.7039V11.7039Z" fill="black"/>
<path d="M132.234 76.3105C129.684 84.5922 117.537 83.0938 117.075 74.4406V74.4406C117.026 73.5044 117.146 72.567 117.43 71.6737L134.829 17.0491C135.407 15.2331 137.094 14 139 14V14C140.906 14 142.593 15.2331 143.171 17.0491L159.719 69.0024C160.353 70.9928 158.867 73.0247 156.779 73.0247V73.0247C155.424 73.0247 154.228 72.1415 153.829 70.8471L152.239 65.6831C149.367 56.3541 135.758 57.7121 134.786 67.4248V67.4248C134.727 68.0156 134.609 68.599 134.434 69.1665L132.234 76.3105ZM125.9 53.1385C125.9 51.3876 127.319 49.9682 129.07 49.9682H148.93C150.681 49.9682 152.1 51.3876 152.1 53.1385V53.1385C152.1 54.8894 150.681 56.3087 148.93 56.3087H129.07C127.319 56.3087 125.9 54.8894 125.9 53.1385V53.1385Z" fill="black"/>
<path d="M124.218 70.693C123.788 72.0908 122.64 73.0247 121.354 73.0247C119.241 73.0247 117.772 70.6001 118.501 68.3132L134.697 17.463C135.36 15.3827 137.078 14 139 14C140.922 14 142.64 15.3827 143.303 17.463L159.499 68.3132C160.228 70.6001 158.759 73.0247 156.646 73.0247C155.36 73.0247 154.212 72.0908 153.782 70.6931L139.267 23.5552C139.227 23.4249 139.12 23.3379 139 23.3379C138.88 23.3379 138.773 23.4249 138.733 23.5552L124.218 70.693ZM125.9 53.1385C125.9 51.3876 127.131 49.9682 128.65 49.9682H149.35C150.869 49.9682 152.1 51.3876 152.1 53.1385C152.1 54.8894 150.869 56.3087 149.35 56.3087H128.65C127.131 56.3087 125.9 54.8894 125.9 53.1385Z" fill="black"/>
</svg>
