<svg width="516" height="516" viewBox="0 0 516 516" fill="none" xmlns="http://www.w3.org/2000/svg">
<path d="M516 258C516 400.489 400.489 516 258 516C115.511 516 0 400.489 0 258C0 115.511 115.511 0 258 0C400.489 0 516 115.511 516 258Z" fill="#7C0202"/>
<path d="M248.924 130.288C258.608 129.049 268.406 130.484 277.206 134.43" stroke="black" stroke-miterlimit="10"/>
<path d="M220.815 138.682C220.815 138.682 281.127 132.178 318.855 158.991" stroke="black" stroke-miterlimit="10"/>
<path d="M204.265 147.979C204.265 147.979 301.76 147.278 320.542 167.917C322.114 169.653 320.438 173.261 318.705 171.642C312.033 165.211 300.035 163.423 297.882 162.21C295.161 160.652 238.491 150.834 192.258 160.698" stroke="black" stroke-miterlimit="10"/>
<path d="M187.838 173.839C187.838 173.839 310.279 150.295 350.263 193.534" stroke="black" stroke-miterlimit="10"/>
<path d="M182.132 184.298C182.132 184.298 278.918 151.876 359.669 209.557" stroke="black" stroke-miterlimit="10"/>
<path d="M170.451 211.108C222.524 181.639 236.347 184.796 236.347 184.796C236.347 184.796 274.656 181.568 330.359 201.932C360.282 221.463 366.011 219.408 384.48 255.232" stroke="black" stroke-miterlimit="10"/>
<path d="M163.447 263.068C163.447 263.068 188.115 196.636 289.306 210.351C299.959 211.148 324.72 210.264 347.267 236.725C370.469 262.872 396.19 285.168 402.353 321.614" stroke="black" stroke-miterlimit="10"/>
<path d="M378.398 277.99C378.398 277.99 396.993 312.925 394.634 355.808" stroke="black" stroke-miterlimit="10"/>
<path d="M211.597 229.817C211.597 229.817 243.418 212.505 293.024 218.293" stroke="black" stroke-miterlimit="10"/>
<path d="M165.051 294.015C165.051 294.015 186.973 247.926 213.071 233.926" stroke="black" stroke-miterlimit="10"/>
<path d="M162.736 275.507C162.736 275.507 180.784 246.334 207.235 229.711" stroke="black" stroke-miterlimit="10"/>
<path d="M166.375 314.549C166.375 314.549 178.205 271.648 200.549 255.634C222.894 239.619 243.066 223.578 284.698 225.446C315.778 236.151 332.536 241.911 350.695 268.59" stroke="black" stroke-miterlimit="10"/>
<path d="M365.268 293.215C365.268 293.215 379.967 323.317 378.235 338.992C376.502 354.668 363.48 387.993 338.325 391.554" stroke="black" stroke-miterlimit="10"/>
<path d="M174.508 345.67C174.508 345.67 168.68 296.919 199.851 273.12" stroke="black" stroke-miterlimit="10"/>
<path d="M205.813 265.517C205.813 265.517 236.365 229.009 272.422 231.953" stroke="black" stroke-miterlimit="10"/>
<path d="M286.064 235.058C286.064 235.058 342 246.436 359.658 304.052C367.136 322.476 370.386 346.014 355.472 370.683" stroke="black" stroke-miterlimit="10"/>
<path d="M167.343 223.288C167.343 223.288 202.352 196.441 228.509 195.449C244.51 194.804 260.503 195.923 276.185 198.785" stroke="black" stroke-miterlimit="10"/>
<path d="M165.483 242.999C165.483 242.999 183.098 209.52 223.632 204.215C264.166 198.911 268.514 198.471 268.514 198.471" stroke="black" stroke-miterlimit="10"/>
<path d="M282.867 199.218C282.867 199.218 322.488 206.859 329.131 211.747C335.775 216.635 347.664 220.821 363.926 244.466C372.258 253.269 379.067 262.618 381.394 264.259C383.721 265.901 396.908 284.242 396.011 286.529" stroke="black" stroke-miterlimit="10"/>
<path d="M299.717 404.421C302.633 404.495 332.214 403.415 353.936 392.537C374.302 375.405 387.262 354.522 387.322 340.213C386.407 324.819 377.755 293.491 370.654 280.906C363.552 268.321 355.132 254.539 350.49 251.173C345.847 247.807 338.671 244.761 335.789 240.725C332.906 236.688 328.794 228.494 319.526 225.923L310.258 223.352" stroke="black" stroke-miterlimit="10"/>
<path d="M377.564 385.456C377.564 385.456 379.392 393.762 370.599 400.572C361.807 407.382 325.178 422.389 318.186 422.165C311.195 421.941 284.032 419.285 281.623 418.203C279.215 417.122 247.743 400.878 245.783 397.16C243.822 393.441 228.52 381.204 227.19 377.495" stroke="black" stroke-miterlimit="10"/>
<path d="M375.617 383.069C375.617 383.069 365.67 393.929 360.084 397.623C354.498 401.317 338.894 410.826 323.666 410.117C308.437 409.409 300.611 412.492 298.29 411.654C295.969 410.817 259.762 394.385 253.55 386.532C247.338 378.678 231.811 362.886 230.041 350.687C228.272 338.489 224.387 320.505 222.887 317.112C221.387 313.72 225.597 292.557 229.09 289.339C232.583 286.12 242.101 266.178 247.728 264.965C253.356 263.752 272.722 255.154 276.583 256.284" stroke="black" stroke-miterlimit="10"/>
<path d="M275.681 258.671C278.78 256.791 282.384 255.889 285.992 256.093C291.375 256.677 303.438 259.66 306.378 262.222C309.317 264.783 325.588 276.339 326.463 279.681C327.338 283.022 342.661 306.356 344.419 316.102C346.177 325.848 348.536 334.789 347.959 337.236C347.382 339.684 340.145 358.828 335.293 360.568C330.441 362.309 321.152 370.947 318.86 371.769C316.569 372.591 299.369 372.866 296.411 371.156" stroke="black" stroke-miterlimit="10"/>
<path d="M395.624 371.411C395.624 371.411 393.014 381.034 388.07 386.463" stroke="black" stroke-miterlimit="10"/>
<path d="M202.498 278.754C202.498 278.754 176.998 312.841 182.533 341.396C183.675 355.844 187.486 380.89 196.44 392.162C205.395 403.434 229.49 424.859 229.49 424.859" stroke="black" stroke-miterlimit="10"/>
<path d="M202.477 367.022C202.135 370.582 203.191 374.111 205.431 376.889" stroke="black" stroke-miterlimit="10"/>
<path d="M226.948 362.174C226.948 362.174 231.318 368.723 230.777 372.847" stroke="black" stroke-miterlimit="10"/>
<path d="M201.459 300.136C201.459 300.136 193.298 316.82 194.241 327.389C194.994 337.005 195.194 346.663 194.838 356.32C194.524 359.499 192.033 375.82 204.306 385.134C214.364 395.539 226.347 408.043 226.347 408.043C226.347 408.043 250.09 430.066 259.768 432.765L294.374 442.48" stroke="black" stroke-miterlimit="10"/>
<path d="M358.492 418.083C358.492 418.083 335.155 430.09 321.035 430.105C306.915 430.12 298.775 433.905 291.056 431.033C283.337 428.162 261.397 425.42 255.605 421.327C249.812 417.234 219.683 392.51 216.619 380.757C214.465 372.76 211.58 364.982 207.998 357.514C206.323 353.634 202.594 326.397 202.961 320.94C203.327 315.482 200.656 296.827 203.67 292.385C206.684 287.943 226.435 257.884 233.098 252.349C239.762 246.814 266.847 239.397 271.675 241.026" stroke="black" stroke-miterlimit="10"/>
<path d="M219.738 359.709C216.386 347.155 211.679 322.823 212.74 319.357C213.8 315.891 218.802 288.037 220.756 285.371" stroke="black" stroke-miterlimit="10"/>
<path d="M264.516 249.234C264.516 249.234 276.331 245.271 284.916 246.672C293.502 248.073 307.274 252.664 309.221 254.206" stroke="black" stroke-miterlimit="10"/>
<path d="M243.434 258.742C243.434 258.742 231.592 267.472 230.357 271.295" stroke="black" stroke-miterlimit="10"/>
<path d="M318.105 259.705C318.105 259.705 336.796 274.854 340.269 284.535C343.742 294.216 351.613 306.525 353.019 308.811C354.426 311.097 358.514 326.493 358.531 329.808C357.855 335.723 356.678 341.582 355.013 347.323" stroke="black" stroke-miterlimit="10"/>
<path d="M270.245 357.588C270.245 357.588 285.091 383.707 312.671 381.89C337.694 373.739 348.2 361.283 348.2 361.283" stroke="black" stroke-miterlimit="10"/>
<path d="M246.235 299.5C246.235 299.5 240.983 324.968 247.401 338.859C253.819 352.75 271.026 375.762 276.721 378.849C282.415 381.935 301.284 391.891 305.145 393.021" stroke="black" stroke-miterlimit="10"/>
<path d="M335.895 385.567C335.895 385.567 321.902 393.653 317.287 394.758C312.672 395.863 291.678 397.223 286.329 394.367C280.98 391.51 258.987 374.48 256.771 372.189C254.555 369.899 232.512 345.576 233.282 327.612C234.052 309.648 235.379 293.293 242.101 285.556C248.823 277.818 260.24 267.846 268.703 267.326C277.165 266.806 295.926 263.731 306.416 273.705C316.905 283.68 328.195 301.464 328.551 303.301C328.908 305.139 334.073 317.848 332.388 320.418C330.703 322.988 329.814 330.873 329.814 330.873C329.814 330.873 323.786 340.602 321.995 341.244" stroke="black" stroke-miterlimit="10"/>
<path d="M342.11 317.775C342.11 317.775 342.696 329.887 338.895 332.922C335.093 335.956 334.57 341.764 332.978 342.905C331.387 344.046 319.709 359.712 307.91 361.41C296.022 356.438 289.016 349.695 287.359 346.653C285.702 343.612 267.272 320.233 266.832 317.542C266.392 314.85 257.339 289.503 270.595 281.446C284.475 275.071 292.43 278.093 292.43 278.093C292.43 278.093 310.862 286.889 314.961 297.525C318.539 308.288 322.175 317.636 319.499 322.231C316.824 326.827 312.509 330.91 307.05 330.058C301.591 329.206 287.346 321.719 284.796 317.032" stroke="black" stroke-miterlimit="10"/>
<path d="M284.049 294.896C284.049 294.896 281.63 315.417 309.986 320.613C313.858 316.139 311.791 309.589 311.791 309.589C311.791 309.589 304.823 294.165 295.169 288.942" stroke="black" stroke-miterlimit="10"/>
<path d="M289.094 294.482C289.094 294.482 294.586 307.369 306.474 313.186" stroke="black" stroke-miterlimit="10"/>
<path d="M284.35 285.257C284.35 285.257 277.929 285.045 275.935 289.121C273.942 293.196 265.642 322.843 295.787 337.754C315.45 347.503 326.221 325.421 326.221 325.421" stroke="black" stroke-miterlimit="10"/>
<path d="M296.746 351.697C296.746 351.697 288.055 348.369 293.351 347.865C298.646 347.36 314.925 350.207 314.925 350.207L319.719 350.728L315.597 356.137" stroke="black" stroke-miterlimit="10"/>
<path d="M268.595 278.292C268.595 278.292 256.657 280.334 255.517 290.844C254.377 301.355 252.52 316.289 255.444 321.116C258.368 325.943 262.091 338.07 263.235 340.47C264.379 342.87 271.415 349.583 277.096 352.576C281.164 354.936 284.854 357.861 288.053 361.262" stroke="black" stroke-miterlimit="10"/>
<path d="M264.278 335.32C264.278 335.32 277.916 344.44 280.91 350.363" stroke="black" stroke-miterlimit="10"/>
<path d="M178.792 196.619C178.792 196.619 199.201 182.026 232.182 180.001" stroke="black" stroke-miterlimit="10"/>
<mask id="path-46-inside-1_153_346" fill="white">
<path d="M192.003 82.4338L189.559 186.666C189.559 186.666 129.594 219.934 169.978 307.546C171.2 334.296 176.903 374.734 203.844 396.461C222.61 412.755 298.897 440.891 321.736 439.153C341.725 439.587 362.12 401.648 369.073 387.852C376.405 367.13 384.553 345.567 383.331 331.77C381.701 316.698 378.85 288.318 360.491 262.355C337.95 239.841 304.301 221.672 298.571 219.934"/>
</mask>
<path d="M189.559 186.666L190.044 187.54L190.545 187.262L190.559 186.689L189.559 186.666ZM169.978 307.546L170.977 307.5L170.968 307.305L170.886 307.127L169.978 307.546ZM203.844 396.461L204.5 395.705L204.486 395.694L204.472 395.682L203.844 396.461ZM321.736 439.153L321.758 438.153L321.709 438.152L321.661 438.156L321.736 439.153ZM369.073 387.852L369.966 388.302L369.994 388.245L370.015 388.185L369.073 387.852ZM383.331 331.77L384.327 331.682L384.326 331.673L384.325 331.663L383.331 331.77ZM360.491 262.355L361.307 261.778L361.258 261.708L361.197 261.647L360.491 262.355ZM191.004 82.4104L188.559 186.642L190.559 186.689L193.003 82.4573L191.004 82.4104ZM189.559 186.666C189.074 185.791 189.073 185.792 189.072 185.792C189.071 185.793 189.07 185.794 189.069 185.794C189.066 185.796 189.063 185.798 189.058 185.8C189.049 185.805 189.037 185.812 189.021 185.821C188.989 185.839 188.943 185.866 188.883 185.901C188.765 185.97 188.592 186.073 188.37 186.21C187.927 186.484 187.288 186.893 186.492 187.444C184.901 188.546 182.682 190.214 180.152 192.489C175.092 197.04 168.775 204.029 163.736 213.793C153.634 233.368 148.766 263.915 169.07 307.964L170.886 307.127C150.807 263.565 155.729 233.671 165.513 214.71C170.418 205.205 176.568 198.402 181.489 193.977C183.949 191.764 186.1 190.148 187.631 189.089C188.396 188.559 189.005 188.168 189.421 187.912C189.628 187.784 189.787 187.689 189.893 187.627C189.946 187.596 189.985 187.574 190.011 187.559C190.023 187.552 190.032 187.547 190.038 187.544C190.041 187.542 190.043 187.541 190.044 187.54C190.044 187.54 190.044 187.54 190.045 187.54C190.045 187.54 190.044 187.54 189.559 186.666ZM168.979 307.591C169.592 321.006 171.33 337.897 176.31 354.18C181.29 370.459 189.535 386.206 203.216 397.239L204.472 395.682C191.212 384.989 183.135 369.654 178.223 353.595C173.312 337.539 171.586 320.835 170.977 307.5L168.979 307.591ZM203.188 397.216C207.987 401.382 216.376 406.243 226.535 411.15C236.718 416.07 248.759 421.073 260.92 425.508C273.081 429.944 285.379 433.819 296.078 436.477C306.741 439.127 315.928 440.598 321.812 440.15L321.661 438.156C316.125 438.577 307.211 437.183 296.56 434.536C285.946 431.899 273.717 428.047 261.605 423.63C249.494 419.212 237.517 414.234 227.405 409.35C217.268 404.453 209.085 399.687 204.5 395.705L203.188 397.216ZM321.715 440.153C327.033 440.268 332.276 437.833 337.197 434.053C342.126 430.267 346.829 425.057 351.09 419.443C359.613 408.213 366.483 395.212 369.966 388.302L368.18 387.401C364.71 394.287 357.906 407.154 349.496 418.234C345.291 423.775 340.712 428.831 335.978 432.467C331.236 436.11 326.434 438.255 321.758 438.153L321.715 440.153ZM370.015 388.185C373.675 377.843 377.559 367.233 380.37 357.491C383.176 347.77 384.955 338.778 384.327 331.682L382.334 331.859C382.928 338.56 381.245 347.247 378.449 356.937C375.659 366.606 371.803 377.139 368.13 387.518L370.015 388.185ZM384.325 331.663C382.696 316.593 379.831 287.973 361.307 261.778L359.674 262.932C377.868 288.662 380.707 316.802 382.336 331.878L384.325 331.663ZM361.197 261.647C349.856 250.319 335.742 240.104 323.762 232.509C317.769 228.709 312.3 225.559 307.964 223.247C303.66 220.952 300.401 219.444 298.861 218.977L298.281 220.891C299.607 221.293 302.703 222.708 307.023 225.012C311.313 227.299 316.739 230.424 322.691 234.198C334.604 241.751 348.585 251.877 359.784 263.062L361.197 261.647Z" fill="white" mask="url(#path-46-inside-1_153_346)"/>
<path d="M190.374 250.623C190.374 250.623 228.721 197.149 258.92 176.482C290.722 163.12 303.432 167.71 306.229 169.149C313.779 173.033 316.441 165.265 325.403 166.134C334.799 164.396 331.541 165.483 331.541 165.483C331.541 165.483 333.985 196.959 343.979 195.03C348.867 193.944 346.016 171.294 340.91 167.004" fill="#FFF7F7"/>
<path d="M345.391 171.919C345.391 171.919 358.97 172.353 362.745 182.782C363.75 194.216 364.565 199.81 362.935 202.417C360.898 204.997 355.195 204.563 353.566 196.578" fill="#FFF7F7"/>
<path d="M349.275 208.365L364.374 206.654C364.374 206.654 363.342 216.567 369.806 221.075" fill="#FFF7F7"/>
<path d="M366.818 206.355C368.383 207.342 369.623 208.766 370.386 210.451C371.148 212.136 371.4 214.007 371.109 215.833" fill="#FFF7F7"/>
<path d="M371.11 224.958C371.11 224.958 368.394 240.71 374.559 242.855C375.581 241.479 376.306 239.906 376.688 238.235C377.069 236.563 377.098 234.831 376.774 233.148C376.449 231.465 375.778 229.867 374.803 228.457C373.828 227.048 372.571 225.856 371.11 224.958Z" fill="#FFF7F7"/>
<path d="M371.925 245.463C371.925 245.463 360.491 249.536 360.708 257.086L371.925 245.463Z" fill="#FFF7F7"/>
<path d="M353.81 181.642C353.49 186.088 353.409 190.548 353.566 195.003L353.81 181.642Z" fill="#FFF7F7"/>
<path d="M295.638 209.669C295.638 209.669 283.797 177.324 323.774 187.345L295.638 209.669Z" fill="#FFF7F7"/>
<path d="M336.837 201.467C336.837 201.467 347.021 219.581 358.862 225.909C356.644 228.651 355.219 231.948 354.74 235.443C354.261 238.937 354.748 242.496 356.146 245.734" fill="#FFF7F7"/>
<path d="M298.218 240.275C298.218 240.275 308.402 317.893 282.711 363.165L298.218 240.275Z" fill="#FFF7F7"/>
<path d="M221.795 238.13C221.795 238.13 163.026 279.084 210.769 332.992L221.795 238.13Z" fill="#FFF7F7"/>
<path d="M257.97 121.541C257.97 121.541 231.165 121.27 229.672 142.67C222.502 150.084 222.203 165.238 225.245 184.629" fill="#FFF7F7"/>
<path d="M195.67 81.8092C195.67 81.8092 211.965 75.753 221.579 83.7374C221.796 91.8848 221.796 93.8673 221.796 93.8673" fill="#FFF7F7"/>
<path d="M213.621 101.635C220.963 96.0421 229.162 91.6764 237.9 88.7074L213.621 101.635Z" fill="#FFF7F7"/>
<path d="M238.498 90.8529C238.498 90.8529 237.493 103.155 244.825 109.863C245.64 98.2126 245.64 97.3436 239.394 90.6628" fill="#FFF7F7"/>
<path d="M240.562 112.416C240.562 112.416 229.699 126.43 226.467 127.081C226.277 129.797 226.06 143.675 226.06 143.675" fill="#FFF7F7"/>
<path d="M225.19 80.424C225.19 80.424 238.226 73.6888 247.894 76.8391C249.252 84.1718 250.339 101.852 254.684 107.881C259.029 113.91 254.548 87.9196 254.548 87.9196" fill="#FFF7F7"/>
<path d="M255.498 81.5921C255.498 81.5921 265.981 76.4049 272.771 80.1527C273.857 86.915 274.4 105.735 274.4 105.735L278.773 109.049" fill="#FFF7F7"/>
<path d="M274.944 82.0263C274.944 82.0263 285.155 77.9798 293.954 83.4657C294.09 90.4996 294.362 110.624 294.362 110.624C294.362 110.624 311.227 129.634 313.372 142.67C313.844 150.11 311.828 157.495 307.642 163.663" fill="#FFF7F7"/>
<path d="M320.243 229.358C320.243 229.358 339.254 227.185 345.799 245.164L320.243 229.358Z" fill="#FFF7F7"/>
<path d="M292.977 85.4753C292.977 85.4753 278.447 85.9642 277.171 81.2658L292.977 85.4753Z" fill="#FFF7F7"/>
<path d="M275.622 167.981C275.622 167.981 271.685 162.903 269.24 170.127L275.622 167.981Z" fill="#FFF7F7"/>
<path d="M288.822 164.804C288.822 164.804 264.379 140.959 259.464 173.44L288.822 164.804Z" fill="#FFF7F7"/>
<path d="M290.315 243.725C290.315 243.725 269.512 248.477 270.327 274.766C262.587 298.937 255.227 310.995 252.376 314.009C249.524 317.024 249.117 327.398 249.117 327.398" fill="#FFF7F7"/>
<path d="M321.194 426.144C321.194 426.144 340.204 416.123 351.665 387.037L321.194 426.144Z" fill="#FFF7F7"/>
</svg>
