<svg width="39" height="39" viewBox="0 0 39 39" fill="none" xmlns="http://www.w3.org/2000/svg">
<path d="M19.5197 38.0007V14.0707C19.5197 13.4041 19.6512 12.744 19.9066 12.1282C20.162 11.5125 20.5364 10.9531 21.0082 10.4822C21.4801 10.0112 22.0402 9.638 22.6565 9.3838C23.2727 9.1296 23.9331 8.99943 24.5997 9.00074C27.0897 9.00074 28.6497 9.74074 29.7197 11.1207M15.2197 18.7907H25.3697" stroke="black" stroke-linecap="round" stroke-linejoin="round"/>
<path d="M3 1.00073C2.46957 1.00073 1.96086 1.21145 1.58579 1.58652C1.21071 1.96159 1 2.4703 1 3.00073V3.00073V36.0007C1 36.5312 1.21071 37.0399 1.58579 37.4149C1.96086 37.79 2.46957 38.0007 3 38.0007H36.04C36.5704 38.0007 37.0791 37.79 37.4542 37.4149C37.8293 37.0399 38.04 36.5312 38.04 36.0007V3.00073C38.04 2.4703 37.8293 1.96159 37.4542 1.58652C37.0791 1.21145 36.5704 1.00073 36.04 1.00073H3Z" stroke="black" stroke-linecap="round" stroke-linejoin="round"/>
</svg>
