<svg width="39" height="39" viewBox="0 0 39 39" fill="none" xmlns="http://www.w3.org/2000/svg">
<path d="M30.88 5.96065C30.4469 5.95476 30.0218 6.07742 29.6584 6.31312C29.295 6.54882 29.0097 6.88698 28.8385 7.28483C28.6673 7.68269 28.6179 8.12237 28.6966 8.54829C28.7753 8.9742 28.9785 9.36723 29.2805 9.67766C29.5826 9.98809 29.9699 10.202 30.3935 10.2923C30.8171 10.3826 31.258 10.3453 31.6603 10.1851C32.0627 10.0248 32.4086 9.74888 32.6542 9.3921C32.8997 9.03532 33.034 8.61373 33.0399 8.18065V8.12065C33.0347 7.5494 32.8055 7.00302 32.4015 6.59907C31.9976 6.19512 31.4512 5.96587 30.88 5.96065Z" stroke="black" stroke-linecap="round" stroke-linejoin="round"/>
<path d="M36.05 1.00064H2.95C2.42828 1.01369 1.93233 1.23015 1.568 1.60382C1.20367 1.97748 0.999837 2.47876 1 3.00064V36.1006C1 36.6311 1.21071 37.1398 1.58579 37.5149C1.96086 37.8899 2.46957 38.1006 3 38.1006H36.1C36.6304 38.1006 37.1391 37.8899 37.5142 37.5149C37.8893 37.1398 38.1 36.6311 38.1 36.1006V2.95064C38.0935 2.68797 38.0353 2.42915 37.9288 2.18898C37.8222 1.9488 37.6694 1.73197 37.479 1.55088C37.2887 1.36979 37.0645 1.22799 36.8193 1.13358C36.5741 1.03916 36.3127 0.993992 36.05 1.00064V1.00064Z" stroke="black" stroke-linecap="round" stroke-linejoin="round"/>
<path d="M19.4997 11.2207C17.8621 11.2207 16.2612 11.7063 14.8996 12.6161C13.538 13.526 12.4767 14.8191 11.85 16.3321C11.2233 17.8451 11.0593 19.5099 11.3788 21.1161C11.6983 22.7222 12.4869 24.1976 13.6449 25.3555C14.8029 26.5135 16.2782 27.3021 17.8844 27.6216C19.4905 27.9411 21.1554 27.7771 22.6683 27.1504C24.1813 26.5237 25.4745 25.4625 26.3843 24.1008C27.2941 22.7392 27.7797 21.1383 27.7797 19.5007V19.5007C27.7797 17.3047 26.9074 15.1987 25.3546 13.6459C23.8018 12.0931 21.6957 11.2207 19.4997 11.2207V11.2207Z" stroke="black" stroke-linecap="round" stroke-linejoin="round"/>
</svg>
